<svg xmlns="http://www.w3.org/2000/svg" width="1000" height="600" viewBox="0 0 5 3"><path fill="#fff" d="M0 0h5v3H0z"/><circle cx="2.5" cy="1.5" r=".7" fill="#003478"/><path fill="#c60c30" d="M2.5,.8 a.7,.7 0 0,1 0,1.4 a.35,.35 0 0,1 0,-.7 a.35,.35 0 0,0 0,-.7 z"/><g fill="#000"><rect x=".55" y=".5" width=".7" height=".08"/><rect x=".55" y=".64" width=".7" height=".08"/><rect x=".55" y=".78" width=".7" height=".08"/><rect x="3.75" y=".5" width=".7" height=".08"/><rect x="3.75" y=".64" width=".7" height=".08"/><rect x="3.75" y=".78" width=".7" height=".08"/><rect x=".55" y="2.14" width=".7" height=".08"/><rect x=".55" y="2.28" width=".7" height=".08"/><rect x=".55" y="2.42" width=".7" height=".08"/><rect x="3.75" y="2.14" width=".7" height=".08"/><rect x="3.75" y="2.28" width=".7" height=".08"/><rect x="3.75" y="2.42" width=".7" height=".08"/></g></svg>
