<svg version="1.0" xmlns="http://www.w3.org/2000/svg" width="900" height="600" viewBox="0 0 900 600"><path fill="#fff" d="M0 0h900v200H0z"/><path fill="#0b4ea2" d="M0 200h900v200H0z"/><path fill="#ee1c25" d="M0 400h900v200H0z"/><path fill="#fff" d="M165 130H415V300C415 405 355 460 290 495 225 460 165 405 165 300Z"/><path fill="#ee1c25" d="M179 144H401V300C401 398 346 448 290 478 234 448 179 398 179 300Z"/><path fill="#0b4ea2" d="M208 438Q208 400 246 400Q258 400 266 410Q274 388 290 388Q306 388 314 410Q322 400 334 400Q372 400 372 438Z"/><path fill="#fff" d="M278 258h24v152h-24z"/><path fill="#fff" d="M268 290h44v22h-44z"/><path fill="#fff" d="M256 340h68v22h-68z"/></svg>
