<svg version="1.0" xmlns="http://www.w3.org/2000/svg" width="900" height="600" viewBox="0 0 900 600"><path fill="#fff" d="M0 0h900v200H0z"/><path fill="#005da4" d="M0 200h900v200H0z"/><path fill="#ed1c24" d="M0 400h900v200H0z"/><path fill="#ed1c24" d="M150 70H350V210C350 280 305 320 250 340 195 320 150 280 150 210Z"/><path fill="#005da4" d="M162 82H338V210C338 273 297 310 250 328 203 310 162 273 162 210Z"/><path fill="#fff" d="M180 250 222 182 250 150 278 182 320 250Z"/><path fill="none" stroke="#005da4" stroke-width="10" d="M182 256q17-13 34 0t34 0 34 0 34 0"/><path fill="none" stroke="#005da4" stroke-width="10" d="M182 278q17-13 34 0t34 0 34 0 34 0"/><g fill="#f4d800"><path d="M212 100 200 124 224 124Z M212 132 200 108 224 108Z"/><path d="M288 100 276 124 300 124Z M288 132 276 108 300 108Z"/><path d="M250 138 238 162 262 162Z M250 170 238 146 262 146Z"/></g></svg>
